<svg width="15" height="24" viewBox="0 0 15 24" fill="none" xmlns="http://www.w3.org/2000/svg">
<path d="M4.71023 16.4588V16.0966C4.71733 14.8537 4.82741 13.8629 5.04048 13.1243C5.26065 12.3857 5.58026 11.7891 5.99929 11.3345C6.41832 10.88 6.92259 10.468 7.51207 10.0987C7.95241 9.81463 8.34659 9.51989 8.6946 9.21449C9.04261 8.90909 9.3196 8.57173 9.52557 8.20241C9.73153 7.82599 9.83452 7.40696 9.83452 6.94531C9.83452 6.45526 9.71733 6.02557 9.48296 5.65625C9.24858 5.28693 8.93253 5.00284 8.5348 4.80398C8.14418 4.60511 7.71094 4.50568 7.23509 4.50568C6.77344 4.50568 6.33665 4.60866 5.92472 4.81463C5.51278 5.01349 5.17543 5.31179 4.91264 5.70952C4.64986 6.10014 4.50781 6.58665 4.48651 7.16903H0.139915C0.175426 5.74858 0.516335 4.5767 1.16264 3.65341C1.80895 2.72301 2.66477 2.03054 3.73011 1.57599C4.79545 1.11435 5.97088 0.883522 7.25639 0.883522C8.66974 0.883522 9.91974 1.1179 11.0064 1.58665C12.093 2.04829 12.9453 2.71946 13.5632 3.60014C14.1811 4.48082 14.4901 5.54261 14.4901 6.78551C14.4901 7.61648 14.3516 8.35511 14.0746 9.00142C13.8047 9.64062 13.4247 10.2088 12.9347 10.706C12.4446 11.196 11.8658 11.6399 11.1982 12.0376C10.6371 12.3714 10.1754 12.7195 9.81321 13.0817C9.4581 13.4439 9.19176 13.8629 9.01421 14.3388C8.84375 14.8146 8.75497 15.4006 8.74787 16.0966V16.4588H4.71023ZM6.8196 23.277C6.10938 23.277 5.50213 23.0284 4.99787 22.5312C4.50071 22.027 4.25568 21.4233 4.26278 20.7202C4.25568 20.0241 4.50071 19.4276 4.99787 18.9304C5.50213 18.4332 6.10938 18.1847 6.8196 18.1847C7.49432 18.1847 8.08736 18.4332 8.59872 18.9304C9.11009 19.4276 9.36932 20.0241 9.37642 20.7202C9.36932 21.1889 9.24503 21.6186 9.00355 22.0092C8.76918 22.3928 8.46023 22.7017 8.0767 22.9361C7.69318 23.1634 7.27415 23.277 6.8196 23.277Z" fill="#5E5E5E"/>
</svg>
