<svg width="40" height="40" viewBox="0 0 40 40" fill="none" xmlns="http://www.w3.org/2000/svg">
<path d="M0.5 0.999999C0.5 0.723857 0.723857 0.5 1 0.5H39C39.2761 0.5 39.5 0.723858 39.5 1V39C39.5 39.2761 39.2761 39.5 39 39.5H0.999999C0.723857 39.5 0.5 39.2761 0.5 39V0.999999Z" stroke="#5E5E5E"/>
<rect x="7" y="23" width="10" height="10" rx="1" fill="#5E5E5E"/>
<path d="M17.5753 16V15.098L20.2457 11.7919V11.7528H17.6676V10.5455H22.0675V11.5291L19.5604 14.7536V14.7926H22.1598V16H17.5753ZM23.2882 16V15.098L25.9586 11.7919V11.7528H23.3805V10.5455H27.7804V11.5291L25.2733 14.7536V14.7926H27.8727V16H23.2882ZM29.0011 16V15.098L31.6715 11.7919V11.7528H29.0934V10.5455H33.4933V11.5291L30.9862 14.7536V14.7926H33.5856V16H29.0011Z" fill="#5E5E5E"/>
</svg>
