<svg width="61" height="40" viewBox="0 0 61 40" fill="none" xmlns="http://www.w3.org/2000/svg">
<path d="M21.5 0.999999C21.5 0.723857 21.7239 0.5 22 0.5H60C60.2761 0.5 60.5 0.723858 60.5 1V39C60.5 39.2761 60.2761 39.5 60 39.5H22C21.7239 39.5 21.5 39.2761 21.5 39V0.999999Z" stroke="#000B71"/>
<rect x="44" y="15" width="10" height="10" rx="1" fill="#000B71"/>
<path d="M0.292892 19.2929C-0.0976295 19.6834 -0.0976295 20.3166 0.292892 20.7071L6.65685 27.0711C7.04738 27.4616 7.68054 27.4616 8.07107 27.0711C8.46159 26.6805 8.46159 26.0474 8.07107 25.6569L2.41422 20L8.07107 14.3431C8.46159 13.9526 8.46159 13.3195 8.07107 12.9289C7.68054 12.5384 7.04738 12.5384 6.65685 12.9289L0.292892 19.2929ZM49 19L1 19V21L49 21V19Z" fill="#000B71"/>
<path d="M21.5 0.999999C21.5 0.723857 21.7239 0.5 22 0.5H60C60.2761 0.5 60.5 0.723858 60.5 1V39C60.5 39.2761 60.2761 39.5 60 39.5H22C21.7239 39.5 21.5 39.2761 21.5 39V0.999999Z" stroke="#000B71"/>
</svg>
