<svg width="40" height="30" viewBox="0 0 40 30" fill="none" xmlns="http://www.w3.org/2000/svg">
<rect x="0.5" y="0.5" width="39" height="29" fill="#F0F0F0" stroke="#5E5E5E"/>
<rect x="4" y="10" width="10" height="10" rx="1" fill="#5E5E5E"/>
<line x1="20.5" y1="1" x2="20.5" y2="29" stroke="#5E5E5E"/>
<path d="M34.7071 15.7071C35.0976 15.3166 35.0976 14.6834 34.7071 14.2929L28.3431 7.92893C27.9526 7.53841 27.3195 7.53841 26.9289 7.92893C26.5384 8.31946 26.5384 8.95262 26.9289 9.34315L32.5858 15L26.9289 20.6569C26.5384 21.0474 26.5384 21.6805 26.9289 22.0711C27.3195 22.4616 27.9526 22.4616 28.3431 22.0711L34.7071 15.7071ZM14 16H34V14H14V16Z" fill="#5E5E5E"/>
</svg>
