<svg width="100" height="100" viewBox="0 0 100 100" fill="none" xmlns="http://www.w3.org/2000/svg">
<rect x="1" y="1" width="98" height="98" rx="4" fill="#D9D9D9" stroke="#5E5E5E" stroke-width="2"/>
<g filter="url(#filter0_d_12_590)">
<path d="M25.3608 11.3491C26.0988 9.92457 28.1295 9.90516 28.8946 11.3153L43.3974 38.0462C44.1205 39.3789 43.1556 41 41.6395 41H13.2886C11.7892 41 10.823 39.4113 11.5127 38.08L25.3608 11.3491Z" fill="#FEAE00"/>
<path d="M14.1107 38.5L27.1469 13.3364L40.7994 38.5H14.1107Z" stroke="#FEAE00" stroke-width="5"/>
</g>
<g filter="url(#filter1_d_12_590)">
<mask id="path-4-inside-1_12_590" fill="white">
<rect x="56" y="55" width="33" height="33" rx="1"/>
</mask>
<rect x="56" y="55" width="33" height="33" rx="1" stroke="#00A2FF" stroke-width="10" shape-rendering="crispEdges" mask="url(#path-4-inside-1_12_590)"/>
</g>
<line x1="1.64645" y1="96.6517" x2="96.6517" y2="1.64644" stroke="#5E5E5E"/>
<defs>
<filter id="filter0_d_12_590" x="7.28589" y="10.2692" width="40.3564" height="38.7308" filterUnits="userSpaceOnUse" color-interpolation-filters="sRGB">
<feFlood flood-opacity="0" result="BackgroundImageFix"/>
<feColorMatrix in="SourceAlpha" type="matrix" values="0 0 0 0 0 0 0 0 0 0 0 0 0 0 0 0 0 0 127 0" result="hardAlpha"/>
<feOffset dy="4"/>
<feGaussianBlur stdDeviation="2"/>
<feComposite in2="hardAlpha" operator="out"/>
<feColorMatrix type="matrix" values="0 0 0 0 0 0 0 0 0 0 0 0 0 0 0 0 0 0 0.25 0"/>
<feBlend mode="normal" in2="BackgroundImageFix" result="effect1_dropShadow_12_590"/>
<feBlend mode="normal" in="SourceGraphic" in2="effect1_dropShadow_12_590" result="shape"/>
</filter>
<filter id="filter1_d_12_590" x="52" y="55" width="41" height="42" filterUnits="userSpaceOnUse" color-interpolation-filters="sRGB">
<feFlood flood-opacity="0" result="BackgroundImageFix"/>
<feColorMatrix in="SourceAlpha" type="matrix" values="0 0 0 0 0 0 0 0 0 0 0 0 0 0 0 0 0 0 127 0" result="hardAlpha"/>
<feOffset dy="5"/>
<feGaussianBlur stdDeviation="2"/>
<feComposite in2="hardAlpha" operator="out"/>
<feColorMatrix type="matrix" values="0 0 0 0 0 0 0 0 0 0 0 0 0 0 0 0 0 0 0.25 0"/>
<feBlend mode="normal" in2="BackgroundImageFix" result="effect1_dropShadow_12_590"/>
<feBlend mode="normal" in="SourceGraphic" in2="effect1_dropShadow_12_590" result="shape"/>
</filter>
</defs>
</svg>
