<svg width="100" height="100" viewBox="0 0 100 100" fill="none" xmlns="http://www.w3.org/2000/svg">
<path d="M97.0104 98.4946L4.86416 98.9747C3.07734 98.984 2.17604 96.824 3.43952 95.5605L95.5858 3.41421C96.8457 2.15428 99 3.04662 99 4.82843V96.4947C99 97.5952 98.1109 98.4889 97.0104 98.4946Z" fill="#CDECF4"/>
<path d="M1.5 2V95.5V96.5L96 2H1.5Z" fill="#F0F0F0"/>
<rect x="1" y="1" width="98" height="98" rx="4" stroke="#000B71" stroke-width="2"/>
<g filter="url(#filter0_d_22_14)">
<path d="M14.1107 38.5L27.1469 13.3364L40.7994 38.5H14.1107Z" stroke="#FEAE00" stroke-width="5" shape-rendering="crispEdges"/>
</g>
<g filter="url(#filter1_d_22_14)">
<mask id="path-5-inside-1_22_14" fill="white">
<rect x="56" y="55" width="33" height="33" rx="1"/>
</mask>
<rect x="56" y="55" width="33" height="33" rx="1" fill="#00A2FF"/>
<rect x="56" y="55" width="33" height="33" rx="1" stroke="#00A2FF" stroke-width="10" mask="url(#path-5-inside-1_22_14)"/>
</g>
<line x1="1.64645" y1="96.6517" x2="96.6517" y2="1.64644" stroke="#000B71"/>
<defs>
<filter id="filter0_d_22_14" x="7.28589" y="10.2692" width="40.3564" height="38.7308" filterUnits="userSpaceOnUse" color-interpolation-filters="sRGB">
<feFlood flood-opacity="0" result="BackgroundImageFix"/>
<feColorMatrix in="SourceAlpha" type="matrix" values="0 0 0 0 0 0 0 0 0 0 0 0 0 0 0 0 0 0 127 0" result="hardAlpha"/>
<feOffset dy="4"/>
<feGaussianBlur stdDeviation="2"/>
<feComposite in2="hardAlpha" operator="out"/>
<feColorMatrix type="matrix" values="0 0 0 0 0 0 0 0 0 0 0 0 0 0 0 0 0 0 0.25 0"/>
<feBlend mode="normal" in2="BackgroundImageFix" result="effect1_dropShadow_22_14"/>
<feBlend mode="normal" in="SourceGraphic" in2="effect1_dropShadow_22_14" result="shape"/>
</filter>
<filter id="filter1_d_22_14" x="52" y="55" width="41" height="42" filterUnits="userSpaceOnUse" color-interpolation-filters="sRGB">
<feFlood flood-opacity="0" result="BackgroundImageFix"/>
<feColorMatrix in="SourceAlpha" type="matrix" values="0 0 0 0 0 0 0 0 0 0 0 0 0 0 0 0 0 0 127 0" result="hardAlpha"/>
<feOffset dy="5"/>
<feGaussianBlur stdDeviation="2"/>
<feComposite in2="hardAlpha" operator="out"/>
<feColorMatrix type="matrix" values="0 0 0 0 0 0 0 0 0 0 0 0 0 0 0 0 0 0 0.25 0"/>
<feBlend mode="normal" in2="BackgroundImageFix" result="effect1_dropShadow_22_14"/>
<feBlend mode="normal" in="SourceGraphic" in2="effect1_dropShadow_22_14" result="shape"/>
</filter>
</defs>
</svg>
