<svg width="100" height="100" viewBox="0 0 100 100" fill="none" xmlns="http://www.w3.org/2000/svg">
<rect x="1" y="1" width="98" height="98" rx="4" fill="#CDECF4" stroke="#000B71" stroke-width="2"/>
<g filter="url(#filter0_d_12_614)">
<path d="M47.6669 27.5945C48.3903 26.1136 50.4939 26.0942 51.2445 27.5615L73.511 71.0892C74.1917 72.42 73.2252 74 71.7304 74H28.2027C26.7241 74 25.7567 72.4508 26.4057 71.1222L47.6669 27.5945Z" fill="#FEAE00"/>
<path d="M48.1162 27.814C48.6587 26.7033 50.2364 26.6887 50.7994 27.7892L73.0658 71.3169C73.5764 72.315 72.8515 73.5 71.7304 73.5H28.2027C27.0937 73.5 26.3682 72.3381 26.8549 71.3417L48.1162 27.814Z" stroke="#FEAE00"/>
</g>
<defs>
<filter id="filter0_d_12_614" x="22.2003" y="26.4723" width="55.5328" height="55.5277" filterUnits="userSpaceOnUse" color-interpolation-filters="sRGB">
<feFlood flood-opacity="0" result="BackgroundImageFix"/>
<feColorMatrix in="SourceAlpha" type="matrix" values="0 0 0 0 0 0 0 0 0 0 0 0 0 0 0 0 0 0 127 0" result="hardAlpha"/>
<feOffset dy="4"/>
<feGaussianBlur stdDeviation="2"/>
<feComposite in2="hardAlpha" operator="out"/>
<feColorMatrix type="matrix" values="0 0 0 0 0 0 0 0 0 0 0 0 0 0 0 0 0 0 0.25 0"/>
<feBlend mode="normal" in2="BackgroundImageFix" result="effect1_dropShadow_12_614"/>
<feBlend mode="normal" in="SourceGraphic" in2="effect1_dropShadow_12_614" result="shape"/>
</filter>
</defs>
</svg>
